<svg xmlns="http://www.w3.org/2000/svg" viewBox="0 0 103.30033 99.73418"><defs><style>.cls-1{fill:#fff;stroke:#fff;stroke-miterlimit:10;}.cls-2{fill:#1d1d1b;}</style></defs><g id="Layer_2" data-name="Layer 2"><g id="Layer_1-2" data-name="Layer 1"><rect class="cls-1" x="0.5" y="0.5" width="102.30033" height="98.73418" rx="35"/><path class="cls-2" d="M11.43236,35.77616c2.04008,4.188,2.25453,9.21875,2.77758,13.77488a108.26836,108.26836,0,0,1,1.16044,15.66877c-.1001,3.21846,4.9,3.21516,5,0,.17275-5.55443-.628-11.10761-1.26954-16.61266-.60767-5.21437-1.02-10.56915-3.35113-15.35458a2.5239,2.5239,0,0,0-3.42047-.89688,2.5523,2.5523,0,0,0-.89688,3.42047Z"/><path class="cls-2" d="M15.51977,36.31686c1.13534-.96707,3.48827-.96908,4.89874-1.15443a18.93947,18.93947,0,0,1,5.7979-.0631,9.41494,9.41494,0,0,1,7.076,6.08422c1.51581,3.71565,1.66615,8.0452,1.70732,12.00748.03644,3.50688-.57631,7.27282-3.94381,9.06835A18.12563,18.12563,0,0,1,25.10384,63.966a17.49992,17.49992,0,0,1-6.873-.16873c-3.10338-.86974-4.4279,3.953-1.3292,4.8214,4.89754,1.37256,10.99616.46653,15.59973-1.53459,4.76628-2.07185,7.00365-6.51736,7.423-11.5156a45.62665,45.62665,0,0,0-.20606-7.706,29.66592,29.66592,0,0,0-1.47-7.65221c-1.66132-4.53243-4.87795-8.35437-9.65492-9.69052a21.16424,21.16424,0,0,0-8.40356-.32708c-2.9034.37331-5.89365.61947-8.20554,2.58873a2.52119,2.52119,0,0,0,0,3.53553,2.55188,2.55188,0,0,0,3.53553,0Z"/><path class="cls-2" d="M48.916,54.16884c3.21726,0,3.22259-5,0-5-3.21727,0-3.22259,5,0,5Z"/><path class="cls-2" d="M65.86372,22.62664a17.77036,17.77036,0,0,0-11.2685,1.18245,12.21382,12.21382,0,0,0-6.38175,7.54923c-2.02529,7.56308,3.71252,13.941,9.4532,17.87808,2.73984,1.879,5.91724,3.39094,8.25187,5.79283,2.2624,2.32759,2.44109,5.61805,1.21063,8.52892-1.30475,3.08661-3.92563,5.48253-6.46094,7.56637a49.64374,49.64374,0,0,1-8.73767,5.68931,47.27436,47.27436,0,0,1-19.44475,5.41662c-5.80575.23176-12.32887-1.37185-14.255-7.57885-1.90389-6.13523,1.156-12.13379,5.62825-16.26953,5.44983-5.03982,12.83282-7.56786,19.64441-10.17012,15.32939-5.85633,30.95982-10.87626,46.60834-15.8q2.89139-.90977,5.78367-1.81669c3.05964-.96022,1.7532-5.78876-1.3292-4.82139C78.37362,30.85568,62.1714,35.94113,46.25767,41.85241c-7.62207,2.83128-15.83071,5.45827-22.504,10.22826C17.92062,56.25,13.19458,62.30982,12.68746,69.6812A15.8905,15.8905,0,0,0,22.90825,85.90747c6.5291,2.49394,14.31,1.28079,20.84574-.54736A56.18013,56.18013,0,0,0,63.55315,75.186c5.62613-4.47336,11.51028-11.60874,8.68566-19.31257-2.66966-7.28122-11.51171-9.27874-16.41868-14.64724-1.93562-2.11768-3.4803-5.23494-2.8756-8.16811.64691-3.13791,3.52073-5.05138,6.49224-5.66654a13.42185,13.42185,0,0,1,5.09775.05647,2.56851,2.56851,0,0,0,3.0753-1.7461,2.52221,2.52221,0,0,0-1.7461-3.07529Z"/></g></g></svg>