<svg id="Layer_1" data-name="Layer 1" xmlns="http://www.w3.org/2000/svg" viewBox="0 0 53.78595 50.50393"><defs><style>.cls-1{fill:#018bff;}</style></defs><path d="M36.10784,0C25.53021,0,18.43032,6.158,18.43032,18.11272v8.51856a7.88347,7.88347,0,0,1,6.88262.01851V18.11272c0-7.7525,4.27488-11.73738,10.7949-11.73738,6.5206,0,10.79549,3.98488,10.79549,11.73738V36.7322H53.786V18.11272C53.786,6.086,46.686,0,36.10784,0Z"/><path class="cls-1" d="M21.57961,28.00191a5.85334,5.85334,0,0,0-3.54064,1.1938l-6.48109-4.42834A5.91391,5.91391,0,1,0,9.432,27.87164L15.91313,32.3a5.75648,5.75648,0,0,0,0,3.18665L9.432,39.915a5.9134,5.9134,0,1,0,2.12586,3.10427L18.039,38.5909a5.88768,5.88768,0,1,0,3.54064-10.589Z"/></svg>