<?xml version="1.0" encoding="UTF-8"?><svg id="a" xmlns="http://www.w3.org/2000/svg" viewBox="0 0 690.79343 834.16338"><defs><style>.b{fill:#0c344b;fill-rule:evenodd;}</style></defs><path class="b" d="M622.03455,661.65411l-374.58589,110.78759c-11.44371,3.38878-22.41167-6.5104-20.00693-18.05184L361.26011,113.51624c2.50249-11.9781,19.06849-13.88103,24.29507-2.78272l247.7732,526.14982c4.67265,9.92528-.6582,21.62965-11.29383,24.77082v-.00005Zm64.23727-26.13285L399.38409,26.30678v-.01303C392.12184,11.00999,377.05821,.94422,360.15875,.08271c-17.45883-1.01664-33.09941,7.40322-41.92332,21.73392L7.09174,525.76983c-9.6499,15.54112-9.43651,35.26216,.54742,50.59083l152.09181,235.5996c9.06504,14.06349,24.77081,22.20312,41.09568,22.20312,4.62701,0,9.2801-.65168,13.85497-2.0072l441.48207-130.57297c13.44651-3.93967,24.5246-13.51537,30.36881-26.25014,5.77102-12.66571,5.67565-27.22933-.26068-39.81837v.00656Z"/></svg>