<?xml version="1.0" encoding="UTF-8"?><svg xmlns="http://www.w3.org/2000/svg" xmlns:xlink="http://www.w3.org/1999/xlink" viewBox="0 0 2164.65203 2626.62096"><defs><style>.f{fill:#1a274b;stroke:#e6e6e6;}.f,.g,.h,.i,.j{stroke-miterlimit:10;stroke-width:20px;}.k{fill:#1a2735;}.l,.j{fill:#2abdc4;}.m,.g{fill:#e6e6e6;}.g,.h,.i,.j{stroke:#1a274b;}.h,.n{fill:none;}.i{fill:#ffd86e;}.o{clip-path:url(#e);}</style><symbol id="a" viewBox="0 0 106.50611 106.50611"><circle class="m" cx="53.25305" cy="53.25305" r="53.25305"/></symbol><clipPath id="e"><circle class="n" cx="940.52709" cy="1680.50247" r="930.52709"/></clipPath></defs><g id="b"/><g id="c"><g id="d"><circle class="f" cx="940.52709" cy="1686.09387" r="930.52709"/><path class="m" d="M671.76993,2363.48411c-192.05371-66.18018-353.60352-194.02759-462.14844-365.73071,144.78516-64.8811,289.57031-129.76245,434.35693-194.63965,29.20215,44.13281,67.70703,74.61499,117.40234,92.90845-29.86816,155.82104-59.74316,311.64087-89.61084,467.46191Z"/><g class="o"><g><use width="106.50611" height="106.50611" transform="translate(33.39647 1725.48384) scale(2.23323)" xlink:href="#a"/><use width="106.50611" height="106.50611" transform="translate(69.77297 1917.80005) scale(3.81992)" xlink:href="#a"/><use width="106.50611" height="106.50611" transform="translate(263.90397 2036.06327) scale(3.98826)" xlink:href="#a"/><use width="106.50611" height="106.50611" transform="translate(461.62442 1993.79286) scale(3.33536)" xlink:href="#a"/><use width="106.50611" height="106.50611" transform="translate(482.54561 2162.33623) scale(2.59394)" xlink:href="#a"/><use width="106.50611" height="106.50611" transform="translate(490.75074 2424.3663) scale(3.15969)" xlink:href="#a"/><use width="106.50611" height="106.50611" transform="translate(657.68648 2526.92158) scale(2.56009)" xlink:href="#a"/><use width="106.50611" height="106.50611" transform="translate(800.73152 2569.78687) scale(2.33648)" xlink:href="#a"/><use width="106.50611" height="106.50611" transform="translate(866.35285 2464.97995) scale(3.05689)" xlink:href="#a"/><use width="106.50611" height="106.50611" transform="translate(830.39634 2212.78587) scale(5.09054)" xlink:href="#a"/><use width="106.50611" height="106.50611" transform="translate(983.58661 2350.00012) scale(4.20706)" xlink:href="#a"/><use width="106.50611" height="106.50611" transform="translate(1103.77311 2581.15623) scale(2.92058)" xlink:href="#a"/><use width="106.50611" height="106.50611" transform="translate(451.17011 2551.10129) scale(2.58921)" xlink:href="#a"/><use width="106.50611" height="106.50611" transform="translate(557.26955 2288.65191) scale(2.99418)" xlink:href="#a"/><use width="106.50611" height="106.50611" transform="translate(979.29289 2553.86838) scale(2.60094)" xlink:href="#a"/><use width="106.50611" height="106.50611" transform="translate(1073.97768 2221.32527) scale(4.98532)" xlink:href="#a"/><use width="106.50611" height="106.50611" transform="translate(1141.44121 2108.39404) scale(3.49855)" xlink:href="#a"/><use width="106.50611" height="106.50611" transform="translate(1118.86557 1989.34139) scale(2.58479)" xlink:href="#a"/><use width="106.50611" height="106.50611" transform="translate(1048.76305 1880.67487) scale(2.16427)" xlink:href="#a"/><use width="106.50611" height="106.50611" transform="translate(979.33927 1991.7484) scale(2.43928)" xlink:href="#a"/><use width="106.50611" height="106.50611" transform="translate(1261.0787 2043.20633) scale(2.63277)" xlink:href="#a"/><use width="106.50611" height="106.50611" transform="translate(1390.72301 1950.45709) scale(3.24494)" xlink:href="#a"/><use width="106.50611" height="106.50611" transform="translate(1495.86707 1801.32979) scale(3.16687)" xlink:href="#a"/><use width="106.50611" height="106.50611" transform="translate(1582.15725 1718.55216) scale(2.23539)" xlink:href="#a"/><use width="106.50611" height="106.50611" transform="translate(1721.50695 1679.5962) scale(3.00501)" xlink:href="#a"/><use width="106.50611" height="106.50611" transform="translate(1709.1034 1583.60913) scale(2.49923)" xlink:href="#a"/><use width="106.50611" height="106.50611" transform="translate(1652.87848 1551.77077) scale(2.24246)" xlink:href="#a"/><use width="106.50611" height="106.50611" transform="translate(1806.11731 1586.69391) scale(2.80023)" xlink:href="#a"/><use width="106.50611" height="106.50611" transform="translate(1826.72392 1844.67475) scale(2.85538)" xlink:href="#a"/><use width="106.50611" height="106.50611" transform="translate(1682.92527 1967.79266) scale(4.10683)" xlink:href="#a"/><use width="106.50611" height="106.50611" transform="translate(1406.1549 2095.53731) scale(3.29052)" xlink:href="#a"/><use width="106.50611" height="106.50611" transform="translate(1224.83371 1902.67971) scale(2.23945)" xlink:href="#a"/><use width="106.50611" height="106.50611" transform="translate(960.73393 1899.85174) scale(2.20836)" xlink:href="#a"/><use width="106.50611" height="106.50611" transform="translate(737.55531 2088.58884) scale(3.43009)" xlink:href="#a"/><use width="106.50611" height="106.50611" transform="translate(620.07962 2198.45783) scale(2.47149)" xlink:href="#a"/><use width="106.50611" height="106.50611" transform="translate(429.19667 2023.36168) scale(2.21213)" xlink:href="#a"/><use width="106.50611" height="106.50611" transform="translate(297.8172 1962.99647) scale(2.43447)" xlink:href="#a"/><use width="106.50611" height="106.50611" transform="translate(208.87407 1833.15178) scale(2.80635)" xlink:href="#a"/><use width="106.50611" height="106.50611" transform="translate(73.89092 1799.97464) scale(2.56276)" xlink:href="#a"/><use width="106.50611" height="106.50611" transform="translate(-95.2941 1800.86427) scale(3.37746)" xlink:href="#a"/><use width="106.50611" height="106.50611" transform="translate(-113.61858 1742.11763) scale(2.35751)" xlink:href="#a"/><use width="106.50611" height="106.50611" transform="translate(-199.80936 1655.47645) scale(2.16427)" xlink:href="#a"/><use width="106.50611" height="106.50611" transform="translate(-272.40191 1966.68288) scale(4.33312)" xlink:href="#a"/><use width="106.50611" height="106.50611" transform="translate(-109.68374 2258.81627) scale(4.22809)" xlink:href="#a"/><use width="106.50611" height="106.50611" transform="translate(-163.27692 2356.88167) scale(2.53895)" xlink:href="#a"/><use width="106.50611" height="106.50611" transform="translate(70.37764 2401.41412) scale(3.9325)" xlink:href="#a"/><use width="106.50611" height="106.50611" transform="translate(357.47462 2225.26617) scale(4.13509)" xlink:href="#a"/><use width="106.50611" height="106.50611" transform="translate(312.55462 2441.7965) scale(3.22286)" xlink:href="#a"/><use width="106.50611" height="106.50611" transform="translate(1376.58299 2505.76014) scale(3.69667)" xlink:href="#a"/><use width="106.50611" height="106.50611" transform="translate(1489.1764 2383.68889) scale(3.52738)" xlink:href="#a"/><use width="106.50611" height="106.50611" transform="translate(1408.29079 2312.84614) scale(3.28666)" xlink:href="#a"/><use width="106.50611" height="106.50611" transform="translate(1528.95895 2152.63427) scale(3.41484)" xlink:href="#a"/><use width="106.50611" height="106.50611" transform="translate(1425.56878 1891.46919) scale(5.72575)" xlink:href="#a"/><use width="106.50611" height="106.50611" transform="translate(1774.54872 2288.19224) scale(2.21499)" xlink:href="#a"/><use width="106.50611" height="106.50611" transform="translate(1858.68539 2143.85678) scale(2.41873)" xlink:href="#a"/><use width="106.50611" height="106.50611" transform="translate(1915.25509 1985.49896) scale(2.40291)" xlink:href="#a"/></g></g><path class="g" d="M1567.54999,1391.37057c-226.02912,285.61684-499.27253,492.8586-726.74886,632.82842-32.61416-60.98667-81.19738-119.6564-143.71959-169.13472-62.49485-49.45666-130.75917-83.25678-197.6086-100.98279,83.94763-253.55439,222.84907-567.11061,448.87818-852.72744,132.06174-166.87698,280.28304-307.03092,426.02883-422.57699,4.43587-3.51386,8.84398-6.99265,13.27962-10.44964C1772.60147,166.57374,2136.58374,36.06824,2136.58374,36.06824c0,0-43.56092,386.00366-249.98808,831.29481-1.84858,4.0882-3.75227,8.18948-5.68368,12.26918-78.95994,168.39851-181.30025,344.86137-313.36199,511.73835Z"/><path class="j" d="M922.80567,1742.66051c-159.23611,201.21529-371.69642,298.35273-371.69642,298.35273,0,0,45.71244-229.09701,204.94855-430.3123,159.23611-201.21529,371.69642-298.35273,371.69642-298.35273,0,0-45.71244,229.09701-204.94855,430.3123Z"/><path class="i" d="M1886.59566,867.36305l-11.62991-14.52824c-58.17657-72.49247-134.90526-147.20492-221.90832-216.05669-82.54702-65.32539-168.68285-120.80241-249.10906-160.43162l-16.28879-8.01909c57.52643-45.10738,114.60836-86.37485,170.0624-123.94578,244.65361-165.85802,457.90543-259.87295,541.37997-293.7356l.16521-.03902c24.07019-9.78404,37.31658-14.53877,37.31658-14.53877,0,0-1.83357,16.16551-6.51624,45.71043-14.7133,93.14977-57.7524,319.26079-161.23599,590.49256-24.01465,62.96079-51.30775,128.36895-82.23586,195.09181Z"/><g><path class="l" d="M1968.82186,672.27476c-54.88672-59.29643-122.65332-122.10152-199.56149-182.96448-72.3971-57.29302-144.52737-106.33128-211.4653-145.02951C1813.17112,164.87337,2034.27901,60.9314,2120.73054,23.30705l.16521-.03919c21.45199-6.87109,33.29267-10.07593,33.29267-10.07593,0,0-.51061,14.72016-2.68531,41.49166-17.8281,97.0857-68.64043,333.01917-182.68125,617.59117Z"/><path class="h" d="M1968.82186,672.27476c-54.88672-59.29643-122.65332-122.10152-199.56149-182.96448-72.3971-57.29302-144.52737-106.33128-211.4653-145.02951C1813.17112,164.87337,2034.27901,60.9314,2120.73054,23.30705l.16521-.03919c21.45199-6.87109,33.29267-10.07593,33.29267-10.07593,0,0-.51061,14.72016-2.68531,41.49166-17.8281,97.0857-68.64043,333.01917-182.68125,617.59117Z"/></g><ellipse class="i" cx="1382.79653" cy="991.42607" rx="206.07554" ry="172.3169" transform="translate(-252.74781 1460.51733) rotate(-51.6429)"/><ellipse class="k" cx="1382.79653" cy="991.42607" rx="105.96588" ry="88.60688" transform="translate(-252.74781 1460.51733) rotate(-51.6429)"/><path class="j" d="M1223.17739,1980.36622c-159.23611,201.21529-371.69642,298.35273-371.69642,298.35273,0,0,45.71244-229.09701,204.94855-430.3123,159.23611-201.21529,371.69642-298.35273,371.69642-298.35273,0,0-45.71244,229.09701-204.94855,430.3123Z"/><path class="j" d="M622.51498,1505.01892c-159.23611,201.21529-371.69642,298.35273-371.69642,298.35273,0,0,45.71244-229.09701,204.94855-430.3123,159.23611-201.21529,371.69642-298.35273,371.69642-298.35273,0,0-45.71244,229.09701-204.94855,430.3123Z"/></g></g></svg>