<?xml version="1.0" encoding="UTF-8"?>
<svg id="Layer_2" data-name="Layer 2" xmlns="http://www.w3.org/2000/svg" viewBox="0 0 231.17 305.38">
  <defs>
    <style>
      .cls-1 {
        fill: #ffd86e;
      }

      .cls-2 {
        fill: #1a2735;
      }

      .cls-3 {
        fill: #29bec5;
      }
    </style>
  </defs>
  <g id="Layer_1-2" data-name="Layer 1">
    <rect class="cls-1" y="200.54" width="85.87" height="104.84"/>
    <rect class="cls-3" x="103.01" width="128.16" height="128.16"/>
    <path class="cls-2" d="M111.48,200.94h-42.43v94.62H15.8V37.08H111.84c30.53,0,54.08,6.81,70.65,20.42,16.57,13.61,24.85,32.84,24.85,57.7,0,17.64-3.82,32.34-11.45,44.12-7.63,11.78-19.2,21.16-34.71,28.14l55.92,105.63v2.49h-57.16l-48.46-94.62Zm-42.43-43.14h42.96c13.37,0,23.73-3.4,31.07-10.21,7.34-6.8,11.01-16.18,11.01-28.14s-3.46-21.77-10.39-28.76c-6.92-6.98-17.55-10.47-31.87-10.47h-42.78v77.58Z"/>
  </g>
</svg>