<svg xmlns="http://www.w3.org/2000/svg" viewBox="0 0 107.19338 78.38989"><defs><style>.cls-1{fill:#1d1d1b;}</style></defs><g id="Layer_2" data-name="Layer 2"><g id="Layer_1-2" data-name="Layer 1"><path class="cls-1" d="M.30747,10.718c2.56009,5.22354,2.82511,11.49927,3.4772,17.18721.72408,6.31591,1.61283,12.67407,1.407,19.04544-.104,3.21838,4.89614,3.21474,5,0,.216-6.68555-.74788-13.37147-1.51678-19.9976-.73618-6.34417-1.19814-12.93967-4.05-18.75864a2.52439,2.52439,0,0,0-3.42048-.89688A2.55169,2.55169,0,0,0,.30747,10.718Z"/><path class="cls-1" d="M4.43048,11.26641C5.88622,9.999,8.75187,9.97568,10.5603,9.7279a23.98908,23.98908,0,0,1,7.34046-.11505c4.33381.76547,7.37332,3.63763,9.06987,7.62408,1.92679,4.52744,2.099,9.85,2.1866,14.7.07912,4.37838-.59272,9.33678-4.7679,11.70163A22.20679,22.20679,0,0,1,16.449,45.985a21.60913,21.60913,0,0,1-8.464-.23844c-3.099-.88759-4.422,3.93557-1.3292,4.82139a25.23606,25.23606,0,0,0,9.52136.447,31.69531,31.69531,0,0,0,9.2136-2.31237c5.71051-2.491,8.29205-7.92113,8.70715-13.89441a58.9984,58.9984,0,0,0-.3158-9.449,34.21128,34.21128,0,0,0-1.84827-9.0909C29.94609,11.069,26.21985,6.69807,20.7227,5.13492a25.606,25.606,0,0,0-10.33852-.38533c-3.31684.434-6.86222.694-9.48924,2.98128a2.52341,2.52341,0,0,0,0,3.53554,2.54919,2.54919,0,0,0,3.53554,0Z"/><path class="cls-1" d="M48.232,37.90818c3.21727,0,3.22259-5,0-5-3.21726,0-3.22259,5,0,5Z"/><path class="cls-1" d="M68.77992.47774C64.16653-.38512,59.34844-.19793,55.12361,2.0281a14.15542,14.15542,0,0,0-7.40835,9.57315,16.78018,16.78018,0,0,0,2.96951,12.396c2.53414,3.69049,6.12086,6.41134,9.8247,8.8432,3.29417,2.16288,7.357,4.06855,9.76994,7.29485,2.35663,3.15106,2.0324,7.44893.30669,10.8152-1.962,3.82719-5.271,6.7917-8.612,9.40994A62.31663,62.31663,0,0,1,51.1626,67.11071a57.041,57.041,0,0,1-24.07142,6.19687,21.71417,21.71417,0,0,1-10.78075-2.22866,12.85793,12.85793,0,0,1-6.222-7.93751c-2.1344-7.641,1.78611-15.04678,7.35622-20.11174,6.71249-6.10375,15.711-9.19735,24.04216-12.37993,18.67643-7.13455,37.7188-13.25262,56.78377-19.25185q3.59-1.12966,7.18108-2.25568c3.05964-.96023,1.75321-5.78876-1.32919-4.8214C84.35724,10.52384,64.5799,16.73067,45.155,23.9461,40.4873,25.68,35.8214,27.43857,31.22348,29.3513A69.169,69.169,0,0,0,18.3353,36.0029C11.22146,40.91411,5.36018,48.1482,4.5758,57.01934a20.46933,20.46933,0,0,0,2.473,11.75642,18.23308,18.23308,0,0,0,9.506,7.88277c7.94989,3.07178,17.4494,1.55766,25.40669-.69294a67.92993,67.92993,0,0,0,24.04-12.46086C72.82878,58.0141,79.79675,49.269,75.90347,40.00607c-1.80064-4.28412-5.72522-6.91442-9.50218-9.32512-3.69517-2.3585-7.51834-4.6411-10.43623-7.97478-2.42143-2.76647-4.22178-6.82883-3.261-10.54025.987-3.813,4.54019-6.18074,8.228-6.93575a17.12682,17.12682,0,0,1,6.51875.069A2.56783,2.56783,0,0,0,70.526,3.553,2.52242,2.52242,0,0,0,68.77992.47774Z"/></g></g></svg>